<svg xmlns="http://www.w3.org/2000/svg" viewBox="0 0 200 300">
  <!-- Body Fur -->
  <rect x="50" y="50" width="100" height="200" rx="30" fill="#8D6E63" stroke="#5D4037" stroke-width="4"/>
  
  <!-- Face -->
  <circle cx="80" cy="90" r="5" fill="#000"/>
  <circle cx="120" cy="90" r="5" fill="#000"/>
  <path d="M90 110 Q100 120 110 110" fill="none" stroke="#000" stroke-width="3"/>
  
  <!-- Bandolier -->
  <line x1="50" y1="60" x2="150" y2="200" stroke="#3E2723" stroke-width="15"/>
  <rect x="55" y="70" width="10" height="15" fill="#BDBDBD" transform="rotate(54 60 77)"/>
  <rect x="75" y="98" width="10" height="15" fill="#BDBDBD" transform="rotate(54 80 105)"/>
  <rect x="95" y="126" width="10" height="15" fill="#BDBDBD" transform="rotate(54 100 133)"/>
  <rect x="115" y="154" width="10" height="15" fill="#BDBDBD" transform="rotate(54 120 161)"/>
  
  <!-- Arms/Legs suggestions (simple block style) -->
  <path d="M50 100 Q40 150 50 180" fill="none" stroke="#5D4037" stroke-width="4"/>
  <path d="M150 100 Q160 150 150 180" fill="none" stroke="#5D4037" stroke-width="4"/>
</svg>
